# AST/ASF file generated using VICON BodyLanguage
# -----------------------------------------------
:version 1.10
:name VICON
:units
  mass 1.0
  length 0.45
  angle deg
:documentation
   .ast/.asf automatically generated from VICON data using
   VICON BodyBuilder and BodyLanguage model FoxedUp or BRILLIANT.MOD
:root
   order TX TY TZ RX RY RZ
   axis XYZ
   position 0 0 0  
   orientation 0 0 0 
:bonedata
  begin
     id 1 
     name lhipjoint
     direction 0.707368 -0.647095 0.284426 
     length 2.60678 
     axis 0 0 0  XYZ
  end
  begin
     id 2 
     name lfemur
     direction 0.34202 -0.939693 0  
     length 6.63812  
     axis 0 0 20  XYZ
    dof rx ry rz
    limits (-160.0 20.0)
           (-70.0 70.0)
           (-60.0 70.0)
  end
  begin
     id 3 
     name ltibia
     direction 0.34202 -0.939693 0   
     length 7.51178   
     axis 0 0 20   XYZ
    dof rx
    limits (-10.0 170.0)
  end
  begin
     id 4 
     name lfoot
     direction 0.121251 -0.333133 0.935051   
     length 1.83716   
     axis -90 7.62852e-016 20   XYZ
    dof rx rz
    limits (-45.0 90.0)
           (-70.0 20.0)
  end
  begin
     id 5 
     name ltoes
     direction 1.53611e-011 -4.21962e-011 1   
     length 0.916133   
     axis -90 7.62852e-016 20   XYZ
    dof rx
    limits (-90.0 20.0)
  end
  begin
     id 6 
     name rhipjoint
     direction -0.692419 -0.660507 0.290321   
     length 2.55385  
     axis 0 0 0  XYZ 
  end
  begin
     id 7 
     name rfemur
     direction -0.34202 -0.939693 0   
     length 7.29079   
     axis 0 0 -20   XYZ
    dof rx ry rz
    limits (-160.0 20.0)
           (-70.0 70.0)
           (-70.0 60.0)
  end
  begin
     id 8 
     name rtibia
     direction -0.34202 -0.939693 0   
     length 7.47143   
     axis 0 0 -20   XYZ
    dof rx
    limits (-10.0 170.0)
 end
 begin
     id 9 
     name rfoot
     direction -0.119907 -0.329441 0.936532   
     length 1.79439  
     axis -90 -7.62852e-016 -20   XYZ
    dof rx rz
    limits (-45.0 90.0)
           (-20.0 70.0)
  end
  begin
     id 10 
     name rtoes
     direction -1.53571e-011 -4.21961e-011 1   
     length 0.896039   
     axis -90 -7.62852e-016 -20   XYZ
    dof rx
    limits (-90.0 20.0)
  end
  begin
     id 11 
     name lowerback
     direction 0.0367721 0.992912 -0.113016   
     length 1.73542   
     axis 0 0 0   XYZ
    dof rx ry rz
    limits (-20.0 45.0)
           (-30.0 30.0)
           (-30.0 30.0)
  end
  begin
     id 12 
     name upperback
     direction -0.000314626 0.990678 0.136227   
     length 1.7514   
     axis 0 0 0   XYZ
    dof rx ry rz
    limits (-20.0 45.0)
           (-30.0 30.0)
           (-30.0 30.0)
  end
  begin
     id 13 
     name thorax
     direction -0.0226159 0.981151 0.191917   
     length 1.71471   
     axis 0 0 0   XYZ
    dof rx ry rz
    limits (-20.0 45.0)
           (-30.0 30.0)
           (-30.0 30.0)
  end
  begin
     id 14 
     name lowerneck
     direction 0.0219333 0.998071 0.0580739   
     length 1.65882   
     axis 0 0 0   XYZ
    dof rx ry rz
    limits (-20.0 45.0)
           (-30.0 30.0)
           (-30.0 30.0)
  end
  begin
     id 15 
     name upperneck
     direction 0.0384529 0.980058 -0.194957   
     length 1.6612   
     axis 0 0 0   XYZ
    dof rx ry rz
    limits (-20.0 45.0)
           (-30.0 30.0)
           (-30.0 30.0)
  end
  begin
     id 16
     name head
     direction 0.00592123 0.997421 -0.0715234  
     length 1.68077  
     axis 0 0 0   XYZ
    dof rx ry rz
    limits (-20.0 45.0)
           (-30.0 30.0)
           (-30.0 30.0)
  end
  begin
     id 17 
     name lclavicle
     direction 0.904803 0.417826 0.0821728  
     length 3.42227  
     axis 0 0 0   XYZ
    dof ry rz
    limits (-20.0 10.0)
           (0.0 20.0)
  end
  begin
     id 18 
     name lhumerus
     direction 1 -4.48965e-011 -2.68786e-027   
     length 5.11878   
     axis -180 -30 -90   XYZ
    dof rx ry rz
    limits (-60.0 90.0)
           (-90.0 90.0)
           (-90.0 90.0)
  end
  begin
     id 19
     name lradius
     direction 1 -4.48965e-011 2.61168e-028   
     length 3.59971   
     axis -180 -30 -90   XYZ
    dof rx
    limits (-10.0 170.0)
  end
  begin
     id 20
     name lwrist
     direction 1 -4.48965e-011 1.58672e-027   
     length 1.79985   
     axis -1.65735e-015 90 90   XYZ
    dof ry
    limits (-180.0 0.0)
 end
  begin
     id 21 
     name lhand
     direction 1 -4.48942e-011 3.17344e-027   
     length 0.62877   
     axis -2.02492e-015 90 90   XYZ
    dof rx rz
    limits (-90.0 90.0)
           (-45.0 45.0)
  end
  begin
     id 22 
     name lfingers
     direction 1 -4.49011e-011 6.34687e-027   
     length 0.506931   
     axis -4.04985e-015 90 90   XYZ
    dof rx
    limits (0.0 90.0)
  end
  begin
     id 23
     name lthumb
     direction 0.707107 -6.34982e-011 0.707107   
     length 0.727854   
     axis -90 45 2.85299e-015   XYZ
    dof rx rz
    limits (-45.0 45.0)
           (-45.0 45.0)
  end
  begin
     id 24 
     name rclavicle
     direction -0.945647 0.32488 0.0143075   
     length 3.52737  
     axis 0 0 0   XYZ 
    dof ry rz
    limits (-10.0 20.0)
           (-20.0 0.0)
  end
  begin
     id 25 
     name rhumerus
     direction -1 -4.48962e-011 1.92182e-027  
     length 5.4902   
     axis -180 30 90   XYZ
    dof rx ry rz
    limits (-90.0 60.0)
           (-90.0 90.0)
           (-90.0 90.0)
  end
  begin
     id 26 
     name rradius
     direction -1 -4.48967e-011 -5.97193e-028   
     length 3.20659   
     axis -180 30 90   XYZ
    dof rx
    limits (-10.0 170.0)
  end
  begin
     id 27 
     name rwrist
     direction -1 -4.48964e-011 1.58672e-027   
     length 1.6033   
     axis -1.65735e-015 -90 -90   XYZ
    dof ry
    limits (-180.0 0.0)
  end
  begin
     id 28
     name rhand
     direction -1 -4.49006e-011 3.17344e-027   
     length 0.691885   
     axis -2.02492e-015 -90 -90   XYZ
    dof rx rz
    limits (-90.0 90.0)
           (-45.0 45.0)
  end
  begin
     id 29
     name rfingers
     direction -1 -4.48908e-011 6.34687e-027   
     length 0.557815   
     axis -4.04985e-015 -90 -90   XYZ
    dof rx
    limits (0.0 90.0)
  end
  begin
     id 30
     name rthumb
     direction -0.707107 -6.34999e-011 0.707107   
     length 0.800915   
     axis -90 -45 -2.85299e-015   XYZ
    dof rx rz
    limits (-45.0 45.0)
           (-45.0 45.0)
  end
:hierarchy
  begin
    root lhipjoint rhipjoint lowerback
    lhipjoint lfemur
    lfemur ltibia
    ltibia lfoot
    lfoot ltoes
    rhipjoint rfemur
    rfemur rtibia
    rtibia rfoot
    rfoot rtoes
    lowerback upperback
    upperback thorax
    thorax lowerneck lclavicle rclavicle
    lowerneck upperneck
    upperneck head
    lclavicle lhumerus
    lhumerus lradius
    lradius lwrist
    lwrist lhand lthumb
    lhand lfingers
    rclavicle rhumerus
    rhumerus rradius
    rradius rwrist
    rwrist rhand rthumb
    rhand rfingers
  end

#!OML:ASF I:\Actors\actors\Patient Classification 1\Patient 1\Session 1\Subject1.ASF
:FULLY-SPECIFIED
:DEGREES
155
root 0.0116687 17.4343 9.02175 6.48728 13.1906 -10.0723
lowerback 4.84693 5.67879 12.7572
upperback -9.00878 9.29845 1.56725
thorax -10.8994 3.51114 -6.49738
lowerneck -8.68608 -12.781 -10.4236
upperneck 16.4908 -17.0097 5.83861
head 7.91295 -8.30737 1.77096
rclavicle -2.41275e-014 -1.37161e-014
rhumerus 12.7248 -3.53315 -71.5036
rradius 40.0725
rwrist -8.58316
rhand 0.783772 -33.55
rfingers 7.12502
rthumb 26.3409 -61.7407
lclavicle -2.41275e-014 -1.37161e-014
lhumerus -46.0105 -0.148307 88.8215
lradius 62.1609
lwrist 11.2207
lhand -16.9289 -8.08188
lfingers 7.12502
lthumb 9.30391 21.6928
rfemur -6.49744 10.525 29.2119
rtibia 11.7806
rfoot -19.2314 -25.9101
rtoes 6.65249
lfemur -2.5115 -42.0452 -1.03827
ltibia -3.36474
lfoot -6.78492 37.736
ltoes -14.0451
156
root -0.0224071 17.4398 9.03427 6.20674 14.0045 -10.102
lowerback 5.27276 5.75733 13.14
upperback -8.8138 9.50605 1.67115
thorax -10.8616 3.59129 -6.64629
lowerneck -8.25437 -13.0114 -10.8449
upperneck 15.709 -17.3477 6.34087
head 7.69367 -8.46893 1.98777
rclavicle -2.73826e-014 2.22639e-014
rhumerus 14.4136 -8.95295 -72.9499
rradius 38.4417
rwrist -12.2497
rhand 3.58616 -33.8665
rfingers 7.12502
rthumb 29.0205 -61.6268
lclavicle -2.73826e-014 2.22639e-014
lhumerus -46.4587 0.215571 88.3798
lradius 62.4207
lwrist 12.4279
lhand -17.9461 -5.94365
lfingers 7.12502
lthumb 8.32238 23.8724
rfemur -6.43081 10.0411 29.4332
rtibia 12.223
rfoot -19.6051 -26.1464
rtoes 7.19916
lfemur -2.5595 -42.226 -0.85874
ltibia -3.43144
lfoot -6.23911 37.2514
ltoes -15.4352
157
root -0.0525447 17.4366 9.0327 6.30509 14.9255 -10.0618
lowerback 5.77832 5.78076 13.5418
upperback -8.89461 9.68981 1.69771
thorax -11.1846 3.61332 -6.92017
lowerneck -7.72037 -13.1818 -11.093
upperneck 14.951 -17.6109 6.68997
head 7.43198 -8.60239 2.15007
rclavicle 1.98785e-014 -6.52014e-014
rhumerus 16.0119 -13.5645 -74.0762
rradius 36.7011
rwrist -14.7515
rhand 5.79351 -33.9046
rfingers 7.12502
rthumb 31.1265 -61.2819
lclavicle 1.98785e-014 -6.52014e-014
lhumerus -47.0825 1.0089 87.5989
lradius 62.173
lwrist 12.8147
lhand -18.8426 -5.96277
lfingers 7.12502
lthumb 7.45706 23.8858
rfemur -6.97103 9.329 29.4334
rtibia 12.8715
rfoot -19.8761 -26.2267
rtoes 7.44912
lfemur -3.54562 -41.8692 -0.216554
ltibia -3.2213
lfoot -5.7464 36.2591
ltoes -16.8801
158
root -0.0674093 17.4253 9.01343 6.76479 15.8144 -10.018
lowerback 5.91958 5.85689 14.1348
upperback -8.91352 9.89208 1.69185
thorax -11.1771 3.65884 -7.27442
lowerneck -7.65049 -13.3879 -11.0851
upperneck 14.2191 -17.8666 6.79698
head 7.21343 -8.72419 2.17308
rclavicle 3.04141e-014 -2.18663e-014
rhumerus 18.3612 -20.2094 -76.924
rradius 34.9041
rwrist -12.9491
rhand 8.33048 -33.8575
rfingers 7.12502
rthumb 33.5412 -60.7419
lclavicle 3.04141e-014 -2.18663e-014
lhumerus -47.4285 2.15881 86.6731
lradius 61.4881
lwrist 12.2401
lhand -19.4542 -8.08594
lfingers 7.12502
lthumb 6.86673 21.7827
rfemur -8.23673 8.17435 29.2431
rtibia 13.9395
rfoot -20.0314 -25.8681
rtoes 7.37264
lfemur -5.31722 -41.3651 0.77521
ltibia -2.68324
lfoot -5.36817 35.2359
ltoes -17.9793
159
root -0.098899 17.4256 9.01661 6.84895 16.7469 -9.99449
lowerback 6.0576 5.82551 14.3379
upperback -8.70053 9.89557 1.90312
thorax -11.0243 3.67562 -7.15577
lowerneck -7.75515 -13.5512 -11.3628
upperneck 13.5683 -18.0442 7.09452
head 7.09058 -8.80227 2.28757
rclavicle 2.28602e-015 5.60573e-014
rhumerus 21.1504 -25.5142 -79.5754
rradius 32.8976
rwrist -11.2953
rhand 9.79366 -33.9381
rfingers 7.12502
rthumb 34.9306 -60.5103
lclavicle 2.28602e-015 5.60573e-014
lhumerus -47.7551 3.06452 86.2095
lradius 61.561
lwrist 12.8258
lhand -20.3741 -6.30238
lfingers 7.12502
lthumb 5.97864 23.5933
rfemur -8.81379 7.39779 29.3055
rtibia 14.7412
rfoot -20.3465 -25.9419
rtoes 7.68428
lfemur -6.23131 -41.0733 1.37616
ltibia -2.48431
lfoot -4.80109 34.2667
ltoes -19.3204
160
root -0.129939 17.4259 9.01957 6.93708 17.6825 -9.96679
lowerback 6.17444 5.79178 14.5535
upperback -8.50467 9.89379 2.09791
thorax -10.8756 3.68725 -7.05959
lowerneck -7.60489 -13.7348 -11.6294
upperneck 12.765 -18.285 7.5097
head 6.89346 -8.91133 2.44948
rclavicle -4.47266e-016 1.43125e-014
rhumerus 24.229 -30.6207 -82.5805
rradius 30.9509
rwrist -9.59467
rhand 11.1729 -33.8136
rfingers 7.12502
rthumb 36.2379 -60.0713
lclavicle -4.47266e-016 1.43125e-014
lhumerus -48.0307 3.97459 85.6229
lradius 61.2216
lwrist 12.9144
lhand -20.1402 -5.7869
lfingers 7.12502
lthumb 6.20447 24.1022
rfemur -9.41106 6.6275 29.3606
rtibia 15.5591
rfoot -20.6554 -26.0575
rtoes 7.64047
lfemur -7.18112 -40.6179 1.96624
ltibia -2.26358
lfoot -4.1858 33.1322
ltoes -20.7329
161
root -0.159936 17.4281 9.02185 6.99147 18.6031 -9.91256
lowerback 6.34394 5.73912 14.7922
upperback -8.2934 9.87419 2.26796
thorax -10.7374 3.68626 -7.00722
lowerneck -7.47971 -13.9058 -11.7009
upperneck 11.941 -18.5075 7.80864
head 6.66478 -9.01182 2.55216
rclavicle -1.56543e-014 -6.59965e-014
rhumerus 27.6954 -35.3596 -85.8159
rradius 29.0005
rwrist -8.29278
rhand 13.4933 -33.7488
rfingers 7.12502
rthumb 38.4315 -59.4293
lclavicle -1.56543e-014 -6.59965e-014
lhumerus -48.3766 4.75796 85.0066
lradius 60.8216
lwrist 13.0282
lhand -19.7775 -7.14235
lfingers 7.12502
lthumb 6.5546 22.7362
rfemur -9.93276 5.90764 29.3905
rtibia 16.311
rfoot -21.0164 -26.2077
rtoes 7.79583
lfemur -8.09568 -40.0701 2.44487
ltibia -1.95104
lfoot -3.83801 31.9027
ltoes -21.7503
